<?xml version="1.0" standalone="no"?>
<!DOCTYPE svg PUBLIC "-//W3C//DTD SVG 20010904//EN"
 "http://www.w3.org/TR/2001/REC-SVG-20010904/DTD/svg10.dtd">
<svg version="1.0" xmlns="http://www.w3.org/2000/svg"
 width="700.000000pt" height="700.000000pt" viewBox="0 0 700.000000 700.000000"
 preserveAspectRatio="xMidYMid meet">
<metadata>
Created by potrace 1.14, written by Peter Selinger 2001-2017
</metadata>
<g transform="translate(0.000000,700.000000) scale(0.100000,-0.100000)"
fill="#000000" stroke="none">
<path d="M3475 5925 c-281 -162 -532 -308 -560 -324 -27 -16 -133 -77 -235
-135 -102 -58 -192 -111 -200 -116 -8 -5 -30 -17 -47 -26 -18 -9 -33 -24 -34
-33 0 -9 -2 -260 -2 -558 -1 -298 -4 -543 -7 -546 -3 -3 -41 -24 -85 -48 -44
-23 -102 -57 -130 -74 -27 -18 -70 -43 -95 -57 -25 -14 -150 -85 -277 -159
-128 -74 -241 -138 -250 -144 -10 -5 -28 -17 -39 -25 l-22 -15 1 -918 0 -919
36 -23 c28 -18 616 -359 781 -453 19 -11 181 -104 360 -207 179 -104 344 -199
367 -212 l41 -24 130 75 c72 42 146 84 164 94 18 11 162 94 320 186 158 91
291 166 296 166 5 0 8 -150 8 -356 -1 -196 2 -358 7 -361 4 -2 40 14 80 38 39
23 93 53 118 68 102 59 335 193 349 202 8 5 98 57 200 115 102 58 210 121 240
139 30 18 75 44 100 57 104 58 405 233 410 238 3 3 23 15 45 27 l40 22 1 917
c0 820 -1 919 -15 932 -23 20 -80 54 -336 201 -126 73 -237 136 -245 141 -8 5
-161 93 -340 196 -179 103 -399 230 -490 283 l-165 96 0 912 c0 501 -2 914 -5
917 -3 3 -235 -127 -515 -289z m-196 -2969 c90 -53 165 -96 166 -96 1 0 125
-71 276 -159 l274 -159 1 -156 c1 -86 -1 -156 -4 -156 -3 0 -39 20 -81 44 -42
24 -94 54 -116 66 -22 13 -53 31 -70 41 -16 10 -41 24 -55 32 -51 28 -107 60
-188 108 -45 27 -84 49 -86 49 -2 0 -43 24 -92 53 -49 29 -96 56 -104 60 -8 4
-37 20 -65 36 l-50 29 0 160 c0 140 2 159 15 152 8 -4 89 -51 179 -104z m-544
-416 c-3 -5 -12 -10 -18 -10 -7 0 -6 4 3 10 19 12 23 12 15 0z"/>
</g>
</svg>
