<svg xmlns="http://www.w3.org/2000/svg" xmlns:xlink="http://www.w3.org/1999/xlink" width="500" zoomAndPan="magnify" viewBox="0 0 375 374.999991" height="500" preserveAspectRatio="xMidYMid meet" version="1.0"><defs><clipPath id="a43c6fb2c8"><path d="M 204.035156 76 L 332.738281 76 L 332.738281 207.945312 L 204.035156 207.945312 Z M 204.035156 76 " clip-rule="nonzero"/></clipPath><clipPath id="fb56b19845"><path d="M 268.457031 107.476562 C 268.492188 107.476562 268.523438 107.476562 268.558594 107.476562 C 288.421875 107.53125 303.433594 124.355469 302.933594 142.839844 C 302.429688 161.503906 287.246094 176.40625 268.121094 176.40625 C 268.027344 176.40625 267.933594 176.40625 267.839844 176.40625 C 248.894531 176.257812 233.925781 160.832031 234.082031 141.605469 C 234.230469 122.585938 249.5 107.472656 268.457031 107.472656 Z M 263.964844 76.417969 C 260.585938 76.546875 259.125 78.070312 258.988281 81.429688 L 258.921875 87.136719 C 258.746094 90.816406 252.8125 94.53125 248.5 94.53125 C 247.4375 94.53125 246.476562 94.308594 245.726562 93.796875 C 245.007812 93.316406 244.449219 92.554688 243.914062 91.859375 L 240.507812 87.285156 C 239.394531 85.847656 238.152344 85.074219 236.78125 85.074219 C 235.847656 85.074219 234.855469 85.429688 233.804688 86.183594 L 226.222656 91.722656 C 223.6875 93.683594 223.355469 96.027344 225.164062 98.746094 C 226.21875 100.324219 227.75 101.675781 228.425781 103.386719 C 229.105469 105.101562 229.863281 107.726562 229.058594 108.902344 C 227.078125 111.789062 225.960938 115.914062 221.578125 116.429688 C 221.488281 116.441406 221.402344 116.441406 221.316406 116.441406 C 220.554688 116.441406 219.742188 116.09375 218.984375 115.851562 L 213.570312 114.09375 C 212.972656 113.945312 212.402344 113.863281 211.867188 113.863281 C 209.933594 113.863281 208.429688 114.851562 207.648438 117.039062 L 204.707031 126.292969 C 203.910156 129.1875 204.84375 131.359375 207.851562 132.359375 L 213.886719 134.375 C 216.15625 135.144531 217.246094 136.730469 217.386719 139.148438 C 217.902344 147.925781 217.648438 148.355469 208.964844 151.214844 L 208.121094 151.511719 C 204.9375 152.660156 203.847656 154.414062 204.699219 157.710938 C 205.507812 160.839844 206.515625 163.929688 207.621094 166.96875 C 208.394531 169.09375 209.890625 170.152344 211.847656 170.152344 C 212.464844 170.152344 213.128906 170.046875 213.828125 169.835938 C 215.855469 169.226562 217.863281 168.164062 219.910156 168.078125 C 220.03125 168.070312 220.160156 168.070312 220.292969 168.070312 C 222.035156 168.070312 224.332031 168.535156 225.164062 169.65625 C 230.273438 176.519531 232.09375 176.183594 225.648438 184.550781 L 225.109375 185.269531 C 223.363281 187.957031 223.652344 190.320312 226.191406 192.320312 L 233.777344 197.847656 C 234.820312 198.53125 235.835938 198.882812 236.800781 198.882812 C 238.164062 198.882812 239.425781 198.183594 240.535156 196.707031 C 241.878906 194.914062 242.992188 192.871094 244.636719 191.429688 C 245.644531 190.546875 247.371094 189.621094 248.628906 189.621094 C 248.847656 189.621094 249.050781 189.648438 249.238281 189.707031 C 257.429688 192.449219 259.277344 190.46875 258.894531 201.640625 L 258.914062 202.3125 C 259.0625 206.046875 260.492188 207.492188 264.320312 207.605469 L 271.703125 207.632812 C 276.75 207.578125 277.988281 206.304688 278.035156 201.207031 C 278.113281 192.484375 278.113281 192.484375 286.542969 189.863281 L 286.757812 189.808594 C 287.4375 189.5625 288.082031 189.445312 288.679688 189.445312 C 290.242188 189.445312 291.558594 190.246094 292.648438 191.691406 L 296.402344 196.839844 C 297.480469 198.203125 298.75 198.894531 300.109375 198.894531 C 301.019531 198.894531 301.96875 198.585938 302.929688 197.960938 C 305.734375 196.128906 308.433594 194.128906 311.054688 192.03125 C 313.324219 190.210938 313.550781 187.914062 311.894531 185.503906 L 308.367188 180.601562 C 306.695312 178.328125 306.769531 176.191406 308.449219 173.855469 C 311.542969 169.535156 312.726562 167.855469 315.203125 167.855469 C 316.761719 167.855469 318.84375 168.523438 322.234375 169.617188 L 323.09375 169.859375 C 323.828125 170.121094 324.5 170.242188 325.109375 170.242188 C 327.023438 170.242188 328.359375 169.023438 329.234375 166.921875 L 330.636719 162.800781 C 333.402344 154.554688 334.382812 152.867188 324.3125 149.972656 C 322.664062 149.503906 320.710938 148.207031 319.992188 146.75 C 317.1875 141.035156 319.851562 135.375 325.875 133.433594 C 333.054688 131.121094 333.511719 130.238281 331.085938 122.800781 L 330.898438 122.15625 C 329.019531 116.121094 328.265625 113.925781 325.460938 113.925781 C 323.882812 113.925781 321.652344 114.625 318.199219 115.71875 C 317.328125 115.992188 316.285156 116.203125 315.304688 116.203125 C 314.613281 116.203125 313.957031 116.101562 313.40625 115.851562 C 307.878906 113.339844 306.21875 106.316406 309.703125 101.480469 L 313.429688 95.800781 C 312.585938 94.375 312.164062 92.992188 311.230469 92.226562 C 308.460938 89.96875 305.546875 87.882812 302.59375 85.867188 C 301.746094 85.289062 300.921875 85.027344 300.136719 85.027344 C 298.84375 85.027344 297.65625 85.734375 296.648438 86.933594 L 292.875 92.058594 C 291.699219 93.738281 290.289062 94.511719 288.589844 94.511719 C 287.917969 94.511719 287.199219 94.390625 286.433594 94.152344 C 278.066406 91.601562 278.0625 91.636719 277.988281 82.410156 L 277.980469 81.515625 C 277.824219 78.21875 276.308594 76.558594 273.039062 76.417969 Z M 263.964844 76.417969 " clip-rule="nonzero"/></clipPath><clipPath id="bdde31bdac"><path d="M 71.308594 118.121094 L 280 118.121094 L 280 256.878906 L 71.308594 256.878906 Z M 71.308594 118.121094 " clip-rule="nonzero"/></clipPath><clipPath id="2e31ec339d"><path d="M 268.640625 214.992188 C 272.515625 214.386719 275.992188 213.851562 279.617188 213.285156 C 279.617188 222.210938 280.417969 231.527344 279.402344 240.632812 C 278.324219 250.355469 270.222656 256.226562 260.171875 256.234375 L 146.324219 256.246094 C 128.078125 256.246094 109.824219 256.03125 91.585938 256.320312 C 80.6875 256.496094 71.425781 247.65625 71.554688 236.253906 C 71.921875 203.785156 71.914062 171.308594 71.554688 138.847656 C 71.433594 127.886719 79.832031 118.585938 91.785156 118.652344 C 126.820312 118.847656 161.863281 118.726562 196.90625 118.726562 C 197.675781 118.726562 198.449219 118.726562 199.484375 118.726562 C 198.625 122.492188 197.816406 126.011719 196.929688 129.914062 L 193.414062 129.914062 C 160.164062 129.914062 126.914062 129.914062 93.671875 129.914062 C 86.253906 129.914062 82.976562 133.109375 82.976562 140.417969 L 82.976562 234.472656 C 82.976562 242.015625 85.984375 245.003906 93.585938 245.003906 L 258.144531 245.011719 C 265.242188 245.011719 268.632812 241.648438 268.644531 234.589844 L 268.652344 215 " clip-rule="nonzero"/></clipPath><clipPath id="bbcf633aa6"><path d="M 61.25 269 L 289.835938 269 L 289.835938 285 L 61.25 285 Z M 61.25 269 " clip-rule="nonzero"/></clipPath><clipPath id="0351b3b416"><path d="M 289.445312 269.347656 C 289.597656 277.359375 283.492188 283.996094 275.246094 284.175781 C 251.21875 284.707031 227.179688 284.363281 203.175781 284.363281 C 201.066406 276.558594 199.582031 275.417969 191.5 275.398438 L 158.605469 275.386719 C 151.984375 275.40625 149.535156 277.59375 148.585938 284.261719 L 146.027344 284.492188 C 123.875 284.5 101.726562 284.570312 79.570312 284.398438 C 76.441406 284.371094 73.117188 283.570312 70.238281 282.324219 C 64.871094 280 62.230469 275.480469 61.773438 269.355469 Z M 289.445312 269.347656 " clip-rule="nonzero"/></clipPath><clipPath id="ff1e3940f5"><path d="M 42.480469 49.746094 L 222 49.746094 L 222 183 L 42.480469 183 Z M 42.480469 49.746094 " clip-rule="nonzero"/></clipPath><clipPath id="5eda20b921"><path d="M 107.304688 49.75 C 104.433594 49.757812 101.539062 49.871094 98.617188 50.113281 C 84.425781 51.277344 71.519531 55.847656 61.015625 65.828125 C 46.183594 79.910156 42.023438 97.980469 42.527344 117.53125 C 42.917969 132.742188 46.484375 147.402344 51.828125 161.597656 C 54.480469 168.648438 57.617188 175.527344 60.53125 182.484375 L 60.882812 182.375 L 61.585938 182.152344 C 61.585938 176.789062 61.75 171.414062 61.519531 166.058594 C 61.414062 163.566406 60.914062 160.964844 59.980469 158.664062 C 52.183594 139.316406 46.496094 119.667969 48.734375 98.378906 C 51.132812 75.527344 67.417969 58.8125 90.269531 56.003906 C 93.792969 55.566406 97.285156 55.367188 100.757812 55.367188 C 112.261719 55.367188 123.476562 57.59375 134.542969 61.046875 C 160.136719 69.03125 182.902344 82.394531 204.21875 98.390625 C 209 101.976562 213.640625 105.75 218.523438 109.585938 C 219.859375 107.746094 220.953125 106.230469 221.980469 104.8125 L 216.519531 95.804688 C 215.605469 94.363281 214.765625 92.695312 213.457031 91.714844 C 200.175781 81.785156 186.144531 73.039062 171.089844 66.035156 C 150.847656 56.609375 130.003906 49.792969 107.710938 49.75 Z M 107.304688 49.75 " clip-rule="nonzero"/></clipPath><clipPath id="ed6e8ecb28"><path d="M 162.472656 205 L 318 205 L 318 325.925781 L 162.472656 325.925781 Z M 162.472656 205 " clip-rule="nonzero"/></clipPath><clipPath id="e5f72d9e33"><path d="M 294.769531 205.167969 C 294.769531 205.167969 294.769531 205.175781 294.761719 205.179688 C 294.761719 205.175781 294.769531 205.167969 294.769531 205.167969 Z M 294.761719 205.179688 C 294.75 205.214844 294.695312 205.324219 294.527344 205.605469 C 294.675781 205.632812 294.816406 205.664062 294.964844 205.691406 L 294.761719 205.226562 C 294.753906 205.214844 294.761719 205.195312 294.761719 205.179688 Z M 294.964844 205.691406 L 299.632812 216.609375 C 307.273438 235.449219 312.457031 254.679688 310.234375 275.359375 C 308.167969 294.664062 296.332031 309.605469 277.832031 315.347656 C 271.453125 317.332031 265.011719 318.136719 258.550781 318.136719 C 252.703125 318.136719 246.839844 317.476562 240.972656 316.429688 C 222.28125 313.097656 204.773438 306.261719 188.523438 296.707031 C 184.0625 294.082031 179.597656 293.542969 175.113281 293.542969 C 171.96875 293.542969 168.8125 293.8125 165.636719 293.8125 C 164.722656 293.8125 163.816406 293.792969 162.898438 293.730469 C 164.023438 294.960938 165.246094 295.867188 166.578125 296.574219 C 175.542969 301.359375 184.3125 306.59375 193.558594 310.769531 C 212.773438 319.453125 232.597656 325.261719 253.671875 325.261719 C 256.773438 325.261719 259.902344 325.132812 263.066406 324.871094 C 292.984375 322.394531 315.097656 300.28125 317.621094 270.367188 C 318.925781 254.929688 316.777344 240.027344 312.652344 225.308594 C 310.921875 219.117188 308.550781 213.105469 306.832031 208.070312 C 302.304688 207.164062 298.730469 206.449219 294.957031 205.699219 Z M 294.964844 205.691406 " clip-rule="nonzero"/></clipPath><clipPath id="a379a07b60"><path d="M 149.066406 171.078125 L 202.691406 171.078125 L 202.691406 226 L 149.066406 226 Z M 149.066406 171.078125 " clip-rule="nonzero"/></clipPath><clipPath id="aed01ee9b9"><path d="M 190.015625 198.628906 C 190.042969 190.617188 183.847656 184.308594 175.898438 184.242188 C 167.820312 184.175781 161.3125 190.59375 161.324219 198.628906 C 161.339844 206.4375 167.765625 212.796875 175.742188 212.882812 C 183.621094 212.972656 189.992188 206.605469 190.019531 198.628906 M 152.90625 187.269531 C 154.316406 187.390625 155.859375 187.929688 157.109375 187.539062 C 159.351562 186.835938 160.003906 183.707031 158.382812 181.53125 C 156.53125 179.03125 157.886719 177.808594 159.816406 176.414062 C 161.675781 175.0625 163.332031 174.238281 164.804688 176.75 C 165.867188 178.5625 167.203125 179.085938 169.285156 178.421875 C 171.433594 177.734375 172.015625 176.378906 171.835938 174.363281 C 171.546875 171.253906 173.703125 171.363281 175.804688 171.34375 C 177.980469 171.316406 180.007812 171.429688 179.757812 174.4375 C 179.59375 176.445312 180.109375 177.796875 182.3125 178.460938 C 184.46875 179.117188 185.714844 178.367188 186.765625 176.652344 C 188.355469 174.054688 190.015625 175.289062 191.765625 176.519531 C 193.585938 177.796875 195.042969 179.078125 193.125 181.339844 C 191.808594 182.894531 191.546875 184.324219 192.882812 186.136719 C 194.21875 187.949219 195.582031 188.125 197.503906 187.332031 C 200.15625 186.238281 201.027344 187.976562 201.707031 190.113281 C 202.363281 192.199219 202.867188 194.121094 200.011719 194.867188 C 198.085938 195.371094 196.945312 196.230469 196.976562 198.546875 C 197.011719 200.796875 198.019531 201.777344 199.988281 202.273438 C 203.148438 203.074219 202.238281 205.128906 201.617188 207.277344 C 200.941406 209.652344 199.765625 210.875 197.292969 209.78125 C 195.472656 208.976562 194.21875 209.203125 192.984375 210.890625 C 191.707031 212.636719 191.699219 214.101562 193.089844 215.691406 C 194.964844 217.839844 193.890625 219.21875 191.929688 220.546875 C 190.042969 221.828125 188.28125 223.125 186.644531 220.386719 C 185.542969 218.539062 184.113281 218.109375 182.109375 218.753906 C 180.121094 219.390625 179.640625 220.761719 179.800781 222.636719 C 180.0625 225.804688 177.925781 225.898438 175.621094 225.898438 C 173.386719 225.898438 171.480469 225.664062 171.800781 222.6875 C 172.003906 220.800781 171.453125 219.433594 169.457031 218.828125 C 167.542969 218.25 166.019531 218.332031 164.90625 220.324219 C 163.402344 223.019531 161.632812 222.109375 159.671875 220.675781 C 157.691406 219.230469 156.410156 217.8125 158.453125 215.550781 C 159.769531 214.09375 159.9375 212.796875 158.671875 211.109375 C 157.398438 209.414062 156.175781 208.835938 154.140625 209.789062 C 151.945312 210.816406 150.609375 209.949219 150.011719 207.546875 C 149.480469 205.417969 147.96875 203.199219 151.496094 202.28125 C 153.402344 201.785156 154.515625 200.84375 154.515625 198.554688 C 154.515625 196.261719 153.429688 195.429688 151.5 194.851562 C 149.957031 194.390625 148.425781 193.589844 149.453125 191.496094 C 150.292969 189.789062 149.707031 186.914062 152.910156 187.265625 " clip-rule="nonzero"/></clipPath><clipPath id="4e716d03fc"><path d="M 102.8125 146 L 139 146 L 139 182 L 102.8125 182 Z M 102.8125 146 " clip-rule="nonzero"/></clipPath><clipPath id="6e205684e4"><path d="M 111.226562 163.988281 C 111.1875 169.300781 115.398438 173.617188 120.65625 173.660156 C 125.949219 173.699219 130.226562 169.46875 130.261719 164.164062 C 130.292969 158.851562 126.101562 154.539062 120.832031 154.464844 C 115.601562 154.390625 111.273438 158.691406 111.226562 163.988281 M 109.359375 178.609375 L 106.433594 175.269531 C 106.882812 174.613281 107.386719 174.128906 107.566406 173.542969 C 107.871094 172.589844 108.386719 171.382812 108.046875 170.636719 C 107.703125 169.898438 106.339844 169.09375 105.554688 169.207031 C 103.398438 169.507812 102.808594 168.164062 102.90625 166.722656 C 102.976562 165.761719 103.902344 164.5 104.789062 164.023438 C 107.144531 162.757812 107.386719 161.082031 105.511719 159.179688 C 104.816406 158.46875 104.386719 156.996094 104.574219 156.015625 C 104.882812 154.398438 105.996094 153.847656 107.863281 154.472656 C 110.664062 155.40625 111.738281 153.976562 111.226562 150.953125 C 111.074219 150.0625 111.851562 148.460938 112.636719 148.09375 C 113.4375 147.71875 115.136719 148.078125 115.792969 148.757812 C 117.882812 150.898438 119.910156 150.832031 120.625 148.019531 C 121.167969 145.878906 122.511719 145.804688 123.820312 146.332031 C 124.71875 146.703125 125.652344 147.984375 125.800781 148.980469 C 126.21875 151.679688 127.847656 152.707031 130.03125 151.019531 C 131.597656 149.8125 132.792969 149.941406 133.605469 151.429688 C 134.082031 152.308594 134.214844 153.835938 133.765625 154.679688 C 132.46875 157.132812 133.101562 158.910156 135.828125 158.898438 C 137.714844 158.890625 138.417969 159.582031 138.714844 161.296875 C 139.023438 163.109375 138.367188 163.820312 136.585938 164.316406 C 134.289062 164.957031 133.933594 167.46875 135.976562 168.796875 C 137.574219 169.84375 137.816406 170.710938 136.941406 172.316406 C 136.121094 173.820312 135.371094 174.40625 133.53125 173.660156 C 131.179688 172.707031 129.433594 174.316406 130.285156 176.675781 C 130.992188 178.621094 130.515625 179.5 128.847656 180.386719 C 127.128906 181.300781 126.363281 180.703125 125.390625 179.210938 C 124.082031 177.210938 121.980469 177.789062 120.824219 180 C 120.359375 180.886719 119.1875 181.878906 118.273438 181.945312 C 116.667969 182.066406 115.210938 181.488281 115.613281 179.152344 C 115.734375 178.441406 115.015625 177.109375 114.363281 176.863281 C 113.550781 176.546875 112.390625 176.941406 111.4375 177.226562 C 110.84375 177.398438 110.355469 177.921875 109.367188 178.601562 " clip-rule="nonzero"/></clipPath><clipPath id="154e0968c6"><path d="M 246.265625 119.460938 L 291 119.460938 L 291 164.375 L 246.265625 164.375 Z M 246.265625 119.460938 " clip-rule="nonzero"/></clipPath><clipPath id="033cdee108"><path d="M 246.398438 141.734375 C 246.53125 129.4375 256.492188 119.773438 268.855469 119.933594 C 280.773438 120.089844 290.8125 130.398438 290.59375 142.25 C 290.371094 154.292969 280.285156 164.203125 268.355469 164.101562 C 256.113281 164.003906 246.261719 153.960938 246.398438 141.738281 " clip-rule="nonzero"/></clipPath></defs><g clip-path="url(#a43c6fb2c8)"><g clip-path="url(#fb56b19845)"><path fill="#0066ff" d="M 39.128906 46.394531 L 336.089844 46.394531 L 336.089844 328.605469 L 39.128906 328.605469 Z M 39.128906 46.394531 " fill-opacity="1" fill-rule="nonzero"/></g></g><g clip-path="url(#bdde31bdac)"><g clip-path="url(#2e31ec339d)"><path fill="#0066ff" d="M 39.128906 46.394531 L 336.089844 46.394531 L 336.089844 328.605469 L 39.128906 328.605469 Z M 39.128906 46.394531 " fill-opacity="1" fill-rule="nonzero"/></g></g><g clip-path="url(#bbcf633aa6)"><g clip-path="url(#0351b3b416)"><path fill="#0066ff" d="M 39.128906 46.394531 L 336.089844 46.394531 L 336.089844 328.605469 L 39.128906 328.605469 Z M 39.128906 46.394531 " fill-opacity="1" fill-rule="nonzero"/></g></g><g clip-path="url(#ff1e3940f5)"><g clip-path="url(#5eda20b921)"><path fill="#0066ff" d="M 39.128906 46.394531 L 336.089844 46.394531 L 336.089844 328.605469 L 39.128906 328.605469 Z M 39.128906 46.394531 " fill-opacity="1" fill-rule="nonzero"/></g></g><g clip-path="url(#ed6e8ecb28)"><g clip-path="url(#e5f72d9e33)"><path fill="#0066ff" d="M 39.128906 46.394531 L 336.089844 46.394531 L 336.089844 328.605469 L 39.128906 328.605469 Z M 39.128906 46.394531 " fill-opacity="1" fill-rule="nonzero"/></g></g><g clip-path="url(#a379a07b60)"><g clip-path="url(#aed01ee9b9)"><path fill="#050a30" d="M 39.128906 46.394531 L 336.089844 46.394531 L 336.089844 328.605469 L 39.128906 328.605469 Z M 39.128906 46.394531 " fill-opacity="1" fill-rule="nonzero"/></g></g><g clip-path="url(#4e716d03fc)"><g clip-path="url(#6e205684e4)"><path fill="#050a30" d="M 39.128906 46.394531 L 336.089844 46.394531 L 336.089844 328.605469 L 39.128906 328.605469 Z M 39.128906 46.394531 " fill-opacity="1" fill-rule="nonzero"/></g></g><g clip-path="url(#154e0968c6)"><g clip-path="url(#033cdee108)"><path fill="#050a30" d="M 39.128906 46.394531 L 336.089844 46.394531 L 336.089844 328.605469 L 39.128906 328.605469 Z M 39.128906 46.394531 " fill-opacity="1" fill-rule="nonzero"/></g></g></svg>