<svg xmlns="http://www.w3.org/2000/svg" xmlns:xlink="http://www.w3.org/1999/xlink" width="500" zoomAndPan="magnify" viewBox="0 0 375 374.999991" height="500" preserveAspectRatio="xMidYMid meet" version="1.0"><defs><clipPath id="b941c580ab"><path d="M 9.078125 4.886719 L 357.078125 4.886719 L 357.078125 352.886719 L 9.078125 352.886719 Z M 9.078125 4.886719 " clip-rule="nonzero"/></clipPath></defs><path fill="#dffdff" d="M 92.066406 273.421875 L 92.066406 133.414062 C 92.066406 123.105469 100.417969 114.753906 110.726562 114.753906 L 250.210938 114.753906 C 260.390625 114.753906 268.871094 123.105469 268.871094 133.414062 L 268.871094 261.027344 Z M 92.066406 273.421875 " fill-opacity="1" fill-rule="evenodd"/><path fill="#596c76" d="M 86.585938 273.421875 L 86.585938 133.414062 C 86.585938 126.761719 89.324219 120.757812 93.632812 116.320312 C 98.066406 112.015625 104.070312 109.273438 110.726562 109.273438 L 250.210938 109.273438 C 256.867188 109.273438 262.867188 112.015625 267.175781 116.320312 C 271.613281 120.757812 274.351562 126.761719 274.351562 133.414062 L 274.351562 261.027344 C 274.351562 264.027344 271.871094 266.507812 268.871094 266.507812 L 92.457031 278.902344 C 89.457031 279.164062 86.847656 276.816406 86.585938 273.816406 C 86.585938 273.683594 86.585938 273.554688 86.585938 273.421875 Z M 97.546875 133.414062 L 97.546875 267.550781 L 263.390625 255.9375 L 263.390625 133.414062 C 263.390625 129.761719 261.824219 126.5 259.476562 124.148438 C 257.128906 121.671875 253.867188 120.234375 250.210938 120.234375 L 110.726562 120.234375 C 107.070312 120.234375 103.808594 121.671875 101.460938 124.148438 C 98.980469 126.5 97.546875 129.761719 97.546875 133.414062 Z M 97.546875 133.414062 " fill-opacity="1" fill-rule="nonzero"/><path fill="#465a61" d="M 71.710938 253.980469 L 294.445312 253.980469 L 294.445312 270.683594 C 294.445312 279.949219 286.878906 287.515625 277.742188 287.515625 L 88.414062 287.515625 C 79.277344 287.515625 71.710938 279.949219 71.710938 270.683594 Z M 71.710938 253.980469 " fill-opacity="1" fill-rule="evenodd"/><path fill="#596c76" d="M 163.703125 276.164062 C 160.699219 276.164062 158.222656 273.816406 158.222656 270.683594 C 158.222656 267.683594 160.699219 265.203125 163.703125 265.203125 L 202.324219 265.203125 C 205.457031 265.203125 207.804688 267.683594 207.804688 270.683594 C 207.804688 273.816406 205.457031 276.164062 202.324219 276.164062 Z M 163.703125 276.164062 " fill-opacity="1" fill-rule="nonzero"/><path fill="#faf5dc" d="M 243.296875 93.878906 L 125.078125 93.878906 C 121.035156 93.878906 117.640625 97.140625 117.640625 101.316406 L 117.640625 219.535156 C 117.640625 223.710938 121.035156 227.101562 125.078125 227.101562 L 235.726562 227.101562 C 239.902344 227.101562 243.296875 223.710938 243.296875 219.535156 Z M 243.296875 93.878906 " fill-opacity="1" fill-rule="evenodd"/><path fill="#6f6571" d="M 132.644531 203.09375 C 129.644531 203.09375 127.164062 200.613281 127.164062 197.613281 C 127.164062 194.480469 129.644531 192.132812 132.644531 192.132812 L 228.160156 192.132812 C 231.292969 192.132812 233.640625 194.480469 233.640625 197.613281 C 233.640625 200.613281 231.292969 203.09375 228.160156 203.09375 Z M 132.644531 203.09375 " fill-opacity="1" fill-rule="nonzero"/><path fill="#6f6571" d="M 132.644531 217.316406 C 129.644531 217.316406 127.164062 214.835938 127.164062 211.835938 C 127.164062 208.835938 129.644531 206.355469 132.644531 206.355469 L 196.453125 206.355469 C 199.453125 206.355469 201.933594 208.835938 201.933594 211.835938 C 201.933594 214.835938 199.453125 217.316406 196.453125 217.316406 Z M 132.644531 217.316406 " fill-opacity="1" fill-rule="nonzero"/><path fill="#f7f8fa" d="M 262.839844 126.210938 C 262.15625 126.894531 261.441406 127.542969 260.695312 128.15625 C 259.949219 128.769531 259.171875 129.34375 258.367188 129.878906 C 257.566406 130.417969 256.738281 130.914062 255.886719 131.367188 C 255.03125 131.824219 254.160156 132.238281 253.265625 132.605469 C 252.375 132.976562 251.464844 133.300781 250.539062 133.582031 C 249.617188 133.863281 248.679688 134.097656 247.730469 134.285156 C 246.785156 134.472656 245.828125 134.617188 244.867188 134.710938 C 243.90625 134.804688 242.941406 134.851562 241.976562 134.851562 C 241.007812 134.851562 240.042969 134.804688 239.082031 134.710938 C 238.121094 134.617188 237.164062 134.472656 236.21875 134.285156 C 235.269531 134.097656 234.332031 133.863281 233.410156 133.582031 C 232.484375 133.300781 231.574219 132.976562 230.683594 132.605469 C 229.789062 132.238281 228.917969 131.824219 228.066406 131.367188 C 227.210938 130.914062 226.382812 130.417969 225.582031 129.878906 C 224.777344 129.34375 224.003906 128.769531 223.253906 128.15625 C 222.507812 127.542969 221.792969 126.894531 221.109375 126.210938 C 220.425781 125.527344 219.777344 124.8125 219.164062 124.066406 C 218.550781 123.316406 217.976562 122.542969 217.441406 121.738281 C 216.902344 120.933594 216.40625 120.105469 215.953125 119.253906 C 215.496094 118.402344 215.082031 117.53125 214.714844 116.636719 C 214.34375 115.746094 214.019531 114.835938 213.738281 113.910156 C 213.457031 112.984375 213.222656 112.050781 213.035156 111.101562 C 212.84375 110.152344 212.703125 109.199219 212.609375 108.238281 C 212.515625 107.273438 212.46875 106.3125 212.46875 105.34375 C 212.46875 104.378906 212.515625 103.414062 212.609375 102.453125 C 212.703125 101.492188 212.84375 100.535156 213.035156 99.589844 C 213.222656 98.640625 213.457031 97.703125 213.738281 96.777344 C 214.019531 95.855469 214.34375 94.945312 214.714844 94.050781 C 215.082031 93.160156 215.496094 92.289062 215.953125 91.433594 C 216.40625 90.582031 216.902344 89.753906 217.441406 88.949219 C 217.976562 88.148438 218.550781 87.371094 219.164062 86.625 C 219.777344 85.878906 220.425781 85.164062 221.109375 84.480469 C 221.792969 83.796875 222.507812 83.148438 223.253906 82.535156 C 224.003906 81.921875 224.777344 81.347656 225.582031 80.808594 C 226.382812 80.273438 227.210938 79.777344 228.066406 79.320312 C 228.917969 78.867188 229.789062 78.453125 230.683594 78.082031 C 231.574219 77.714844 232.484375 77.386719 233.410156 77.109375 C 234.332031 76.828125 235.269531 76.59375 236.21875 76.402344 C 237.164062 76.214844 238.121094 76.074219 239.082031 75.980469 C 240.042969 75.882812 241.007812 75.835938 241.976562 75.835938 C 242.941406 75.835938 243.90625 75.882812 244.867188 75.980469 C 245.828125 76.074219 246.785156 76.214844 247.730469 76.402344 C 248.679688 76.59375 249.617188 76.828125 250.539062 77.109375 C 251.464844 77.386719 252.375 77.714844 253.265625 78.082031 C 254.160156 78.453125 255.03125 78.867188 255.886719 79.320312 C 256.738281 79.777344 257.566406 80.273438 258.367188 80.808594 C 259.171875 81.347656 259.949219 81.921875 260.695312 82.535156 C 261.441406 83.148438 262.15625 83.796875 262.839844 84.480469 C 263.523438 85.164062 264.171875 85.878906 264.785156 86.625 C 265.398438 87.371094 265.972656 88.148438 266.507812 88.949219 C 267.046875 89.753906 267.542969 90.582031 268 91.433594 C 268.453125 92.289062 268.867188 93.160156 269.238281 94.050781 C 269.605469 94.945312 269.929688 95.855469 270.210938 96.777344 C 270.492188 97.703125 270.726562 98.640625 270.914062 99.589844 C 271.105469 100.535156 271.246094 101.492188 271.339844 102.453125 C 271.433594 103.414062 271.484375 104.378906 271.484375 105.34375 C 271.484375 106.3125 271.433594 107.273438 271.339844 108.238281 C 271.246094 109.199219 271.105469 110.152344 270.914062 111.101562 C 270.726562 112.050781 270.492188 112.984375 270.210938 113.910156 C 269.929688 114.835938 269.605469 115.746094 269.238281 116.636719 C 268.867188 117.53125 268.453125 118.402344 268 119.253906 C 267.542969 120.105469 267.046875 120.933594 266.507812 121.738281 C 265.972656 122.542969 265.398438 123.316406 264.785156 124.066406 C 264.171875 124.8125 263.523438 125.527344 262.839844 126.210938 Z M 262.839844 126.210938 " fill-opacity="1" fill-rule="nonzero"/><path fill="#e8364c" d="M 266.785156 80.570312 C 273.570312 87.355469 277.089844 96.355469 277.089844 105.359375 C 277.089844 114.363281 273.570312 123.238281 266.785156 130.152344 C 259.867188 136.9375 250.996094 140.460938 241.992188 140.460938 C 232.988281 140.460938 223.984375 136.9375 217.199219 130.152344 C 210.285156 123.238281 206.890625 114.363281 206.890625 105.359375 C 206.890625 96.355469 210.285156 87.355469 217.199219 80.570312 C 223.984375 73.652344 232.988281 70.261719 241.992188 70.261719 C 250.996094 70.261719 259.867188 73.652344 266.785156 80.570312 Z M 259.085938 88.265625 C 254.257812 83.570312 248.125 81.222656 241.992188 81.222656 C 235.859375 81.222656 229.59375 83.570312 224.898438 88.265625 C 220.199219 92.964844 217.851562 99.226562 217.851562 105.359375 C 217.851562 111.492188 220.199219 117.625 224.898438 122.453125 C 229.59375 127.152344 235.859375 129.5 241.992188 129.5 C 248.125 129.5 254.257812 127.152344 259.085938 122.453125 C 263.78125 117.625 266.132812 111.492188 266.132812 105.359375 C 266.132812 99.226562 263.78125 92.964844 259.085938 88.265625 Z M 259.085938 88.265625 " fill-opacity="1" fill-rule="nonzero"/><path fill="#e8364c" d="M 259.085938 80.570312 C 261.171875 78.351562 264.566406 78.351562 266.785156 80.570312 C 268.871094 82.65625 268.871094 86.179688 266.785156 88.265625 L 224.898438 130.152344 C 222.808594 132.242188 219.289062 132.242188 217.199219 130.152344 C 214.980469 128.066406 214.980469 124.542969 217.199219 122.453125 Z M 259.085938 80.570312 " fill-opacity="1" fill-rule="nonzero"/><path fill="#f06923" d="M 209.632812 164.859375 L 209.632812 183.78125 L 148.828125 183.78125 L 148.828125 164.859375 C 148.828125 139.417969 209.632812 139.417969 209.632812 164.859375 Z M 209.632812 164.859375 " fill-opacity="1" fill-rule="evenodd"/><path fill="#cd5f27" d="M 198.28125 183.78125 L 186.40625 183.78125 L 186.40625 165.515625 C 186.40625 162.25 189.015625 159.511719 192.277344 159.511719 C 195.539062 159.511719 198.28125 162.25 198.28125 165.515625 Z M 198.28125 183.78125 " fill-opacity="1" fill-rule="evenodd"/><path fill="#cd5f27" d="M 172.050781 183.78125 L 160.308594 183.78125 L 160.308594 165.515625 C 160.308594 162.25 162.917969 159.511719 166.179688 159.511719 C 169.441406 159.511719 172.050781 162.25 172.050781 165.515625 Z M 172.050781 183.78125 " fill-opacity="1" fill-rule="evenodd"/><path fill="#fabe8c" d="M 195.800781 125.585938 C 195.800781 126.128906 195.773438 126.667969 195.71875 127.210938 C 195.667969 127.75 195.585938 128.285156 195.480469 128.820312 C 195.375 129.351562 195.246094 129.875 195.085938 130.394531 C 194.929688 130.914062 194.746094 131.425781 194.539062 131.925781 C 194.332031 132.429688 194.097656 132.917969 193.84375 133.398438 C 193.585938 133.875 193.308594 134.339844 193.007812 134.792969 C 192.707031 135.242188 192.382812 135.679688 192.039062 136.097656 C 191.695312 136.519531 191.332031 136.917969 190.945312 137.304688 C 190.5625 137.6875 190.160156 138.050781 189.742188 138.394531 C 189.320312 138.738281 188.886719 139.0625 188.433594 139.363281 C 187.984375 139.664062 187.519531 139.945312 187.039062 140.199219 C 186.5625 140.457031 186.070312 140.6875 185.570312 140.894531 C 185.070312 141.101562 184.558594 141.285156 184.039062 141.445312 C 183.519531 141.601562 182.996094 141.734375 182.460938 141.839844 C 181.929688 141.945312 181.394531 142.023438 180.851562 142.078125 C 180.3125 142.128906 179.773438 142.15625 179.230469 142.15625 C 178.6875 142.15625 178.144531 142.128906 177.605469 142.078125 C 177.066406 142.023438 176.527344 141.945312 175.996094 141.839844 C 175.464844 141.734375 174.9375 141.601562 174.417969 141.445312 C 173.898438 141.285156 173.390625 141.101562 172.886719 140.894531 C 172.386719 140.6875 171.894531 140.457031 171.417969 140.199219 C 170.9375 139.945312 170.472656 139.664062 170.023438 139.363281 C 169.570312 139.0625 169.136719 138.738281 168.714844 138.394531 C 168.296875 138.050781 167.894531 137.6875 167.511719 137.304688 C 167.128906 136.917969 166.761719 136.519531 166.417969 136.097656 C 166.074219 135.679688 165.75 135.242188 165.449219 134.792969 C 165.148438 134.339844 164.871094 133.875 164.613281 133.398438 C 164.359375 132.917969 164.125 132.429688 163.917969 131.925781 C 163.710938 131.425781 163.527344 130.914062 163.371094 130.394531 C 163.214844 129.875 163.082031 129.351562 162.976562 128.820312 C 162.871094 128.285156 162.789062 127.75 162.738281 127.210938 C 162.683594 126.667969 162.65625 126.128906 162.65625 125.585938 C 162.65625 125.042969 162.683594 124.5 162.738281 123.960938 C 162.789062 123.421875 162.871094 122.886719 162.976562 122.351562 C 163.082031 121.820312 163.214844 121.292969 163.371094 120.773438 C 163.527344 120.257812 163.710938 119.746094 163.917969 119.242188 C 164.125 118.742188 164.359375 118.253906 164.613281 117.773438 C 164.871094 117.296875 165.148438 116.832031 165.449219 116.378906 C 165.75 115.929688 166.074219 115.492188 166.417969 115.074219 C 166.761719 114.652344 167.128906 114.25 167.511719 113.867188 C 167.894531 113.484375 168.296875 113.121094 168.714844 112.777344 C 169.136719 112.429688 169.570312 112.109375 170.023438 111.808594 C 170.472656 111.503906 170.9375 111.226562 171.417969 110.972656 C 171.894531 110.714844 172.386719 110.484375 172.886719 110.277344 C 173.390625 110.066406 173.898438 109.886719 174.417969 109.726562 C 174.9375 109.570312 175.464844 109.4375 175.996094 109.332031 C 176.527344 109.226562 177.066406 109.148438 177.605469 109.09375 C 178.144531 109.039062 178.6875 109.015625 179.230469 109.015625 C 179.773438 109.015625 180.3125 109.039062 180.851562 109.09375 C 181.394531 109.148438 181.929688 109.226562 182.460938 109.332031 C 182.996094 109.4375 183.519531 109.570312 184.039062 109.726562 C 184.558594 109.886719 185.070312 110.066406 185.570312 110.277344 C 186.070312 110.484375 186.5625 110.714844 187.039062 110.972656 C 187.519531 111.226562 187.984375 111.503906 188.433594 111.808594 C 188.886719 112.109375 189.320312 112.429688 189.742188 112.777344 C 190.160156 113.121094 190.5625 113.484375 190.945312 113.867188 C 191.332031 114.25 191.695312 114.652344 192.039062 115.074219 C 192.382812 115.492188 192.707031 115.929688 193.007812 116.378906 C 193.308594 116.832031 193.585938 117.296875 193.84375 117.773438 C 194.097656 118.253906 194.332031 118.742188 194.539062 119.242188 C 194.746094 119.746094 194.929688 120.257812 195.085938 120.773438 C 195.246094 121.292969 195.375 121.820312 195.480469 122.351562 C 195.585938 122.886719 195.667969 123.421875 195.71875 123.960938 C 195.773438 124.5 195.800781 125.042969 195.800781 125.585938 Z M 195.800781 125.585938 " fill-opacity="1" fill-rule="nonzero"/><g clip-path="url(#b941c580ab)"><path fill="#465a61" d="M 183.011719 4.886719 C 279.179688 4.886719 357.078125 82.785156 357.078125 178.824219 C 357.078125 274.988281 279.179688 352.886719 183.011719 352.886719 C 86.976562 352.886719 9.078125 274.988281 9.078125 178.824219 C 9.078125 82.785156 86.976562 4.886719 183.011719 4.886719 Z M 183.011719 19.632812 C 270.957031 19.632812 342.332031 90.878906 342.332031 178.824219 C 342.332031 266.769531 270.957031 338.144531 183.011719 338.144531 C 95.066406 338.144531 23.824219 266.769531 23.824219 178.824219 C 23.824219 90.878906 95.066406 19.632812 183.011719 19.632812 Z M 183.011719 19.632812 " fill-opacity="1" fill-rule="evenodd"/></g><path fill="#f06923" d="M 183.011719 14.675781 C 273.699219 14.675781 347.160156 88.265625 347.160156 178.824219 C 347.160156 269.507812 273.699219 342.972656 183.011719 342.972656 C 92.457031 342.972656 18.863281 269.507812 18.863281 178.824219 C 18.863281 88.265625 92.457031 14.675781 183.011719 14.675781 Z M 183.011719 19.632812 C 270.957031 19.632812 342.332031 90.878906 342.332031 178.824219 C 342.332031 266.769531 270.957031 338.144531 183.011719 338.144531 C 95.066406 338.144531 23.824219 266.769531 23.824219 178.824219 C 23.824219 90.878906 95.066406 19.632812 183.011719 19.632812 Z M 183.011719 19.632812 " fill-opacity="1" fill-rule="evenodd"/></svg>